<?xml version="1.0" encoding="UTF-8" standalone="no"?>
<!-- Created with Inkscape (http://www.inkscape.org/) -->

<svg
   width="392.71539mm"
   height="62.180065mm"
   viewBox="0 0 392.71538 62.180063"
   version="1.1"
   id="svg5"
   xml:space="preserve"
   xmlns:xlink="http://www.w3.org/1999/xlink"
   xmlns="http://www.w3.org/2000/svg"
   xmlns:svg="http://www.w3.org/2000/svg"><defs
     id="defs2"><rect
   id="SVGID_1_"
   width="65.099998"
   height="24.200001"
   x="0"
   y="0" />
	<defs
   id="defs1052">
		<rect
   id="rect1076"
   width="65.099998"
   height="24.200001"
   x="0"
   y="0" />
	</defs>
	<clipPath
   id="SVGID_00000082359472067570307020000014218882433846957491_">
		<use
   xlink:href="#SVGID_1_"
   style="overflow:visible"
   id="use1054" />
	</clipPath>
	
	
	
		
	
		
	
		
<rect
   id="SVGID_1_-0"
   x="0"
   width="167.60001"
   height="25.5"
   y="0" />
	<defs
   id="defs4567">
		<rect
   id="rect4605"
   x="0"
   width="167.60001"
   height="25.5"
   y="0" />
	</defs>
	<clipPath
   id="SVGID_00000037670119323047873530000006417936157109744264_">
		<use
   xlink:href="#SVGID_1_-0"
   style="overflow:visible"
   id="use4569" />
	</clipPath>
	
	
	
	
	
	
	
	
	
	
		
	
		
	
		
<rect
   id="SVGID_1_-07"
   x="0"
   width="105.2"
   height="25.5"
   y="0" /><rect
   id="SVGID_1_-3"
   x="0"
   width="108.4"
   height="25.5"
   y="0" />
	<defs
   id="defs10605">
		<rect
   id="rect10635"
   x="0"
   width="108.4"
   height="25.5"
   y="0" />
	</defs>
	<clipPath
   id="SVGID_00000050644735326727069850000001983093407677822117_">
		<use
   xlink:href="#SVGID_1_-3"
   style="overflow:visible"
   id="use10607" />
	</clipPath>
	
	
	
	
	
	
		
	
		
	
		
<rect
   id="SVGID_1_-01"
   x="0"
   width="147.60001"
   height="25.5"
   y="0" />
	<defs
   id="defs13250">
		<rect
   id="rect13286"
   x="0"
   width="147.60001"
   height="25.5"
   y="0" />
	</defs>
	<clipPath
   id="SVGID_00000088818644166720032370000003813424794679767475_">
		<use
   xlink:href="#SVGID_1_-01"
   style="overflow:visible"
   id="use13252" />
	</clipPath>
	
	
	
	
		
	
	
	
	
	
		
	
		
	
		
<rect
   id="SVGID_1_-6"
   width="94.800003"
   height="25.5"
   x="0"
   y="0" /><rect
   id="SVGID_1_-5"
   x="0"
   width="169.5"
   height="25.5"
   y="0" /><rect
   id="SVGID_1_-9"
   x="0"
   width="173.7"
   height="25.5"
   y="0" /><rect
   id="SVGID_1_-98"
   x="0"
   width="61.5"
   height="25.5"
   y="0" /><rect
   id="SVGID_1_-8"
   x="0"
   width="158.39999"
   height="25.5"
   y="0" /></defs><g
     id="layer1"
     transform="translate(-1398.4606,-189.8844)"><g
       id="g29565"><polygon
         class="st0"
         points="72.2,19.9 69.7,19.9 69.7,9 65.9,17 64.1,17 60.2,9 60.2,19.9 57.8,19.9 57.8,3.6 60.2,3.6 65,13.8 69.7,3.6 72.2,3.6 "
         id="polygon28397"
         clip-path="url(#SVGID_00000183953670876001774750000011022341051138790560_)"
         style="stroke-width:0.106853"
         transform="matrix(2.4761375,0,0,2.4761375,1398.4606,188.92296)" /><path
         class="st0"
         d="m 1611.4084,234.23628 c -2.7237,2.72375 -6.4379,4.20943 -10.6474,4.20943 -4.2094,0 -7.9236,-1.48568 -10.6474,-4.20943 -3.9618,-3.96182 -3.9618,-8.41887 -3.9618,-16.34251 0,-7.67603 0,-12.38069 3.9618,-16.34251 2.7238,-2.72375 6.1904,-4.20943 10.6474,-4.20943 4.2095,0 7.9237,1.48568 10.6474,4.20943 3.9618,3.96182 3.9618,8.41887 3.9618,16.34251 0,7.92364 0,12.38069 -3.9618,16.34251 m -4.7046,-28.7232 c -1.4857,-1.48568 -3.7142,-2.47614 -5.9428,-2.47614 -2.4761,0 -4.7046,0.99046 -5.9427,2.47614 -1.9809,2.22852 -2.4761,4.45705 -2.4761,12.6283 0,8.17126 0.4952,10.39978 2.4761,12.6283 1.4857,1.48569 3.7142,2.47614 5.9427,2.47614 2.4762,0 4.7047,-0.99045 5.9428,-2.47614 1.9809,-2.22852 2.4761,-4.45704 2.4761,-12.6283 0,-8.17125 -0.4952,-10.39978 -2.4761,-12.6283"
         id="path28399"
         clip-path="url(#SVGID_00000183953670876001774750000011022341051138790560_)"
         style="stroke-width:0.264583" /><polygon
         class="st0"
         points="91.2,19.9 91.2,3.6 93.7,3.6 93.7,17.7 101.6,17.7 101.6,19.9 "
         id="polygon28401"
         clip-path="url(#SVGID_00000183953670876001774750000011022341051138790560_)"
         style="stroke-width:0.106853"
         transform="matrix(2.4761375,0,0,2.4761375,1398.4606,188.92296)" /><path
         class="st0"
         d="m 1681.4831,234.48389 c -2.4761,2.47614 -6.1903,3.71421 -10.3998,3.71421 h -14.1139 v -40.36105 h 14.1139 c 4.2095,0 7.9237,1.23807 10.3998,3.71421 4.4571,4.45705 4.2095,10.39978 4.2095,16.09489 0,5.94273 0.2476,12.38069 -4.2095,16.83774 m -4.2094,-28.47558 c -1.7333,-1.98091 -3.9618,-2.72375 -6.9332,-2.72375 h -7.4284 v 29.46603 h 7.4284 c 2.9714,0 5.1999,-0.74284 6.9332,-2.72375 1.9809,-2.22852 2.2285,-6.68557 2.2285,-12.38069 0,-5.4475 0,-9.1617 -2.2285,-11.63784"
         id="path28403"
         clip-path="url(#SVGID_00000183953670876001774750000011022341051138790560_)"
         style="stroke-width:0.264583" /><path
         class="st0"
         d="m 1718.6252,234.23628 c -2.7238,2.72375 -6.438,4.20943 -10.6474,4.20943 -4.2094,0 -7.9237,-1.48568 -10.6474,-4.20943 -3.9618,-3.96182 -3.9618,-8.41887 -3.9618,-16.34251 0,-7.67603 0,-12.38069 3.9618,-16.34251 2.7237,-2.72375 6.1903,-4.20943 10.6474,-4.20943 4.2094,0 7.9236,1.48568 10.6474,4.20943 3.9618,3.96182 3.9618,8.41887 3.9618,16.34251 -0.2476,7.92364 0,12.38069 -3.9618,16.34251 m -4.7047,-28.7232 c -1.4857,-1.48568 -3.7142,-2.47614 -5.9427,-2.47614 -2.4761,0 -4.7047,0.99046 -5.9427,2.47614 -1.981,2.22852 -2.4762,4.45705 -2.4762,12.6283 0,8.17126 0.4952,10.39978 2.4762,12.6283 1.4856,1.48569 3.7142,2.47614 5.9427,2.47614 2.4761,0 4.7046,-0.99045 5.9427,-2.47614 1.9809,-2.22852 2.4762,-4.45704 2.4762,-12.6283 -0.2477,-8.17125 -0.4953,-10.39978 -2.4762,-12.6283"
         id="path28405"
         clip-path="url(#SVGID_00000183953670876001774750000011022341051138790560_)"
         style="stroke-width:0.264583" /><polygon
         class="st0"
         points="142.3,3.6 144.9,3.6 139.5,19.9 137.6,19.9 132.2,3.6 134.8,3.6 138.6,15.5 "
         id="polygon28407"
         clip-path="url(#SVGID_00000183953670876001774750000011022341051138790560_)"
         style="stroke-width:0.106853"
         transform="matrix(2.4761375,0,0,2.4761375,1398.4606,188.92296)" /><path
         class="st0"
         d="m 1784.2428,238.1981 -2.7237,-8.17126 h -15.8473 l -2.7238,8.17126 h -6.4379 l 14.8568,-40.36105 h 4.9523 l 14.8568,40.36105 z m -10.6474,-31.19934 -6.1903,17.82819 h 12.3807 z"
         id="path28409"
         clip-path="url(#SVGID_00000183953670876001774750000011022341051138790560_)"
         style="stroke-width:0.264583" /></g><path
       class="st0"
       d="m 1398.4606,206.50354 h 10.1522 v 32.18978 h 10.1521 v -32.18978 h 10.1522 v -9.16171 h -30.4565 z m 58.9321,-9.16171 -6.9332,23.02808 -6.9332,-23.02808 h -10.3998 l 13.6188,41.35149 h 7.4284 l 13.6188,-41.35149 z"
       id="path28411"
       clip-path="url(#SVGID_00000183953670876001774750000011022341051138790560_)"
       style="stroke-width:0.264583" /><g
       id="g28425"
       style="stroke-width:0.106853"
       transform="matrix(2.4761375,0,0,2.4761375,1398.4606,188.92296)">
	<defs
   id="defs28414">
		<rect
   id="rect28442"
   x="0"
   width="158.39999"
   height="25.5"
   y="0" />
	</defs>
	<clipPath
   id="SVGID_00000132784757547674951690000012159830649203422648_">
		<use
   xlink:href="#SVGID_1_-8"
   style="overflow:visible"
   id="use28416" />
	</clipPath>
	
		<path
   style="clip-rule:evenodd;fill:#0090c7;fill-rule:evenodd;stroke-width:0.106853"
   d="m 38.9,1.6 c -2,0.3 -6.4,2.2 -8.8,8.6 -1.3,3.4 -1.7,6.7 -3.6,8.5 -1.4,1.3 0.3,1.9 1.5,1.4 4.8,-1.9 6.1,-9.5 11.8,-12.3 2.5,-1.3 5.6,-1.4 5.6,-0.1 0,0.1 0.2,-0.1 0.2,-0.5 -0.3,-4.5 -3.9,-6 -6.7,-5.6"
   clip-path="url(#SVGID_00000132784757547674951690000012159830649203422648_)"
   id="path28419" />
	
		<path
   style="clip-rule:evenodd;fill:#f9a41a;fill-rule:evenodd;stroke-width:0.106853"
   d="m 40.6,17.6 v 0 C 40.2,16.8 39.8,14.8 44.1,12.8 49.8,10.6 54.7,9.1 53.2,5.1 51,0.1 43.7,0 40.2,0.7 c 3.5,-0.1 6.4,2.9 6.1,6.2 -0.4,2.3 -2,4 -3.8,5.8 -2.9,2.5 -2.3,4.2 -1.9,4.9"
   clip-path="url(#SVGID_00000132784757547674951690000012159830649203422648_)"
   id="path28421" />
	
		<path
   style="clip-rule:evenodd;fill:#e32529;fill-rule:evenodd;stroke-width:0.106853"
   d="m 46.1,13.2 c -3.4,0.8 -6.7,3.3 -4.5,5.9 5,5.9 12,6.3 12,6.4 C 49.8,22 46,16 46.1,13.2"
   clip-path="url(#SVGID_00000132784757547674951690000012159830649203422648_)"
   id="path28423" />
</g></g><style
     type="text/css"
     id="style1049">
	.st0{clip-path:url(#SVGID_00000102530623492441638280000014484000450656315564_);fill:#1B8B46;}
	
		.st1{clip-path:url(#SVGID_00000102530623492441638280000014484000450656315564_);fill-rule:evenodd;clip-rule:evenodd;fill:#1B8B46;}
	
		.st2{clip-path:url(#SVGID_00000102530623492441638280000014484000450656315564_);fill-rule:evenodd;clip-rule:evenodd;fill:#30B35A;}
	
		.st3{clip-path:url(#SVGID_00000102530623492441638280000014484000450656315564_);fill-rule:evenodd;clip-rule:evenodd;fill:#00653D;}
</style><style
     type="text/css"
     id="style4564">
	.st0{clip-path:url(#SVGID_00000130612688895323011110000002828921781137296259_);fill:#733CBE;}
	
		.st1{clip-path:url(#SVGID_00000130612688895323011110000002828921781137296259_);fill-rule:evenodd;clip-rule:evenodd;fill:#733CBE;}
	
		.st2{clip-path:url(#SVGID_00000130612688895323011110000002828921781137296259_);fill-rule:evenodd;clip-rule:evenodd;fill:#9678D3;}
	
		.st3{clip-path:url(#SVGID_00000130612688895323011110000002828921781137296259_);fill-rule:evenodd;clip-rule:evenodd;fill:#643CA0;}
</style><style
     type="text/css"
     id="style7225">
	.st0{fill:#CD0000;}
	
		.st1{clip-path:url(#SVGID_00000026875140925211379050000003737613548735430555_);fill-rule:evenodd;clip-rule:evenodd;fill:#CC2027;}
	
		.st2{clip-path:url(#SVGID_00000026875140925211379050000003737613548735430555_);fill-rule:evenodd;clip-rule:evenodd;fill:#EE3827;}
	
		.st3{clip-path:url(#SVGID_00000026875140925211379050000003737613548735430555_);fill-rule:evenodd;clip-rule:evenodd;fill:#951A1D;}
</style><style
     type="text/css"
     id="style10602">
	.st0{clip-path:url(#SVGID_00000131354649885966984130000012406554017547911823_);fill:#96A0AA;}
	
		.st1{clip-path:url(#SVGID_00000131354649885966984130000012406554017547911823_);fill-rule:evenodd;clip-rule:evenodd;fill:#0090C7;}
	
		.st2{clip-path:url(#SVGID_00000131354649885966984130000012406554017547911823_);fill-rule:evenodd;clip-rule:evenodd;fill:#F9A41A;}
	
		.st3{clip-path:url(#SVGID_00000131354649885966984130000012406554017547911823_);fill-rule:evenodd;clip-rule:evenodd;fill:#E32529;}
</style><style
     type="text/css"
     id="style13247">
	.st0{clip-path:url(#SVGID_00000183953670876001774750000011022341051138790560_);fill:#96A0AA;}
	
		.st1{clip-path:url(#SVGID_00000183953670876001774750000011022341051138790560_);fill-rule:evenodd;clip-rule:evenodd;fill:#0090C7;}
	
		.st2{clip-path:url(#SVGID_00000183953670876001774750000011022341051138790560_);fill-rule:evenodd;clip-rule:evenodd;fill:#F9A41A;}
	
		.st3{clip-path:url(#SVGID_00000183953670876001774750000011022341051138790560_);fill-rule:evenodd;clip-rule:evenodd;fill:#E32529;}
</style><style
     type="text/css"
     id="style16642">
	.st0{fill:#96A0AA;}
	
		.st1{clip-path:url(#SVGID_00000109029473713624434330000003082469785561951935_);fill-rule:evenodd;clip-rule:evenodd;fill:#0090C7;}
	
		.st2{clip-path:url(#SVGID_00000109029473713624434330000003082469785561951935_);fill-rule:evenodd;clip-rule:evenodd;fill:#F9A41A;}
	
		.st3{clip-path:url(#SVGID_00000109029473713624434330000003082469785561951935_);fill-rule:evenodd;clip-rule:evenodd;fill:#E32529;}
</style><style
     type="text/css"
     id="style19297">
	.st0{fill:#96A0AA;}
	
		.st1{clip-path:url(#SVGID_00000117663745212030925900000009977307730602713765_);fill-rule:evenodd;clip-rule:evenodd;fill:#0090C7;}
	
		.st2{clip-path:url(#SVGID_00000117663745212030925900000009977307730602713765_);fill-rule:evenodd;clip-rule:evenodd;fill:#F9A41A;}
	
		.st3{clip-path:url(#SVGID_00000117663745212030925900000009977307730602713765_);fill-rule:evenodd;clip-rule:evenodd;fill:#E32529;}
</style><style
     type="text/css"
     id="style22341">
	.st0{fill:#96A0AA;}
	
		.st1{clip-path:url(#SVGID_00000150091052336092099910000000081490559677531265_);fill-rule:evenodd;clip-rule:evenodd;fill:#0090C7;}
	
		.st2{clip-path:url(#SVGID_00000150091052336092099910000000081490559677531265_);fill-rule:evenodd;clip-rule:evenodd;fill:#F9A41A;}
	
		.st3{clip-path:url(#SVGID_00000150091052336092099910000000081490559677531265_);fill-rule:evenodd;clip-rule:evenodd;fill:#E32529;}
</style><style
     type="text/css"
     id="style25393">
	.st0{fill:#96A0AA;}
	
		.st1{clip-path:url(#SVGID_00000087409010232551561470000004897698521002603444_);fill-rule:evenodd;clip-rule:evenodd;fill:#0090C7;}
	
		.st2{clip-path:url(#SVGID_00000087409010232551561470000004897698521002603444_);fill-rule:evenodd;clip-rule:evenodd;fill:#F9A41A;}
	
		.st3{clip-path:url(#SVGID_00000087409010232551561470000004897698521002603444_);fill-rule:evenodd;clip-rule:evenodd;fill:#E32529;}
</style><style
     type="text/css"
     id="style28395">
	.st0{fill:#96A0AA;}
	
		.st1{clip-path:url(#SVGID_00000150092884744228387360000002834837105186290851_);fill-rule:evenodd;clip-rule:evenodd;fill:#0090C7;}
	
		.st2{clip-path:url(#SVGID_00000150092884744228387360000002834837105186290851_);fill-rule:evenodd;clip-rule:evenodd;fill:#F9A41A;}
	
		.st3{clip-path:url(#SVGID_00000150092884744228387360000002834837105186290851_);fill-rule:evenodd;clip-rule:evenodd;fill:#E32529;}
</style></svg>
